{
  "accessors": [
    {
      "bufferView": 2,
      "componentType": 5126,
      "count": 27524,
      "max": [
        17.102481842041016,
        39.000404357910156,
        15.349438667297363
      ],
      "min": [
        -21.3719482421875,
        2.4239680767059326,
        -22.809612274169922
      ],
      "type": "VEC3"
    },
    {
      "bufferView": 2,
      "byteOffset": 330288,
      "componentType": 5126,
      "count": 27524,
      "max": [
        0.999958336353302,
        0.999994695186615,
        0.9999991655349731
      ],
      "min": [
        -0.9998260736465454,
        -0.9215233325958252,
        -0.9999900460243225
      ],
      "type": "VEC3"
    },
    {
      "bufferView": 3,
      "componentType": 5126,
      "count": 27524,
      "max": [
        0.9998999834060669,
        0.9999987483024597,
        0.9996774196624756,
        1.0
      ],
      "min": [
        -0.9995276927947998,
        -0.9999998211860657,
        -0.9999454021453857,
        -1.0
      ],
      "type": "VEC4"
    },
    {
      "bufferView": 1,
      "componentType": 5126,
      "count": 27524,
      "max": [
        0.9931718111038208,
        0.9481736421585083
      ],
      "min": [
        -0.014322520233690739,
        -0.021735578775405884
      ],
      "type": "VEC2"
    },
    {
      "bufferView": 0,
      "componentType": 5125,
      "count": 48204,
      "type": "SCALAR"
    },
    {
      "bufferView": 2,
      "byteOffset": 660576,
      "componentType": 5126,
      "count": 49204,
      "max": [
        16.910871505737305,
        38.765377044677734,
        15.635032653808594
      ],
      "min": [
        -21.535152435302734,
        -0.007193657569587231,
        -22.811304092407227
      ],
      "type": "VEC3"
    },
    {
      "bufferView": 2,
      "byteOffset": 1251024,
      "componentType": 5126,
      "count": 49204,
      "max": [
        0.9999676942825317,
        1.0,
        0.9999534487724304
      ],
      "min": [
        -0.9999656081199646,
        -0.9999323487281799,
        -0.9999805688858032
      ],
      "type": "VEC3"
    },
    {
      "bufferView": 3,
      "byteOffset": 440384,
      "componentType": 5126,
      "count": 49204,
      "max": [
        0.9999951720237732,
        0.9999893307685852,
        0.9999871253967285,
        1.0
      ],
      "min": [
        -0.999982476234436,
        -0.9999837875366211,
        -0.9999990463256836,
        -1.0
      ],
      "type": "VEC4"
    },
    {
      "bufferView": 1,
      "byteOffset": 220192,
      "componentType": 5126,
      "count": 49204,
      "max": [
        3.1602396965026855,
        62.6245231628418
      ],
      "min": [
        -1.432321310043335,
        -1.3170117139816284
      ],
      "type": "VEC2"
    },
    {
      "bufferView": 0,
      "byteOffset": 192816,
      "componentType": 5125,
      "count": 182184,
      "type": "SCALAR"
    }
  ],
  "asset": {
    "extras": {
      "author": "Nice2meetU2 (https://sketchfab.com/Nice2meetU2)",
      "license": "CC-BY-4.0 (http://creativecommons.org/licenses/by/4.0/)",
      "source": "https://sketchfab.com/3d-models/japanese-cherry-tree-ca5a9449555e490cbe726671ed8f95a4",
      "title": "Japanese Cherry tree"
    },
    "generator": "Sketchfab-15.30.0",
    "version": "2.0"
  },
  "bufferViews": [
    {
      "buffer": 0,
      "byteLength": 921552,
      "name": "floatBufferViews",
      "target": 34963
    },
    {
      "buffer": 0,
      "byteLength": 613824,
      "byteOffset": 921552,
      "byteStride": 8,
      "name": "floatBufferViews",
      "target": 34962
    },
    {
      "buffer": 0,
      "byteLength": 1841472,
      "byteOffset": 1535376,
      "byteStride": 12,
      "name": "floatBufferViews",
      "target": 34962
    },
    {
      "buffer": 0,
      "byteLength": 1227648,
      "byteOffset": 3376848,
      "byteStride": 16,
      "name": "floatBufferViews",
      "target": 34962
    }
  ],
  "buffers": [
    {
      "byteLength": 4604496,
      "uri": "scene.bin"
    }
  ],
  "images": [
    {
      "uri": "textures/Material.002_baseColor.png"
    },
    {
      "uri": "textures/Material.002_normal.png"
    },
    {
      "uri": "textures/Material_baseColor.png"
    },
    {
      "uri": "textures/Material_normal.png"
    }
  ],
  "materials": [
    {
      "doubleSided": true,
      "name": "Material.002",
      "normalTexture": {
        "index": 1
      },
      "pbrMetallicRoughness": {
        "baseColorTexture": {
          "index": 0
        },
        "metallicFactor": 0.0,
        "roughnessFactor": 0.5
      }
    },
    {
      "doubleSided": true,
      "name": "Material",
      "normalTexture": {
        "index": 3
      },
      "pbrMetallicRoughness": {
        "baseColorTexture": {
          "index": 2
        },
        "metallicFactor": 0.0,
        "roughnessFactor": 0.9171772235843834
      }
    }
  ],
  "meshes": [
    {
      "name": "Object_0",
      "primitives": [
        {
          "attributes": {
            "NORMAL": 1,
            "POSITION": 0,
            "TANGENT": 2,
            "TEXCOORD_0": 3
          },
          "indices": 4,
          "material": 0,
          "mode": 4
        }
      ]
    },
    {
      "name": "Object_1",
      "primitives": [
        {
          "attributes": {
            "NORMAL": 6,
            "POSITION": 5,
            "TANGENT": 7,
            "TEXCOORD_0": 8
          },
          "indices": 9,
          "material": 1,
          "mode": 4
        }
      ]
    }
  ],
  "nodes": [
    {
      "children": [
        1
      ],
      "matrix": [
        1.0,
        0.0,
        0.0,
        0.0,
        0.0,
        2.220446049250313e-16,
        -1.0,
        0.0,
        0.0,
        1.0,
        2.220446049250313e-16,
        0.0,
        0.0,
        0.0,
        0.0,
        1.0
      ],
      "name": "Sketchfab_model"
    },
    {
      "children": [
        2
      ],
      "name": "root"
    },
    {
      "children": [
        3
      ],
      "matrix": [
        1.0,
        0.0,
        0.0,
        0.0,
        0.0,
        2.220446049250313e-16,
        1.0,
        0.0,
        0.0,
        -1.0,
        2.220446049250313e-16,
        0.0,
        0.0,
        0.0,
        0.0,
        1.0
      ],
      "name": "GLTF_SceneRootNode"
    },
    {
      "children": [
        4,
        5
      ],
      "name": "cherry_0"
    },
    {
      "mesh": 0,
      "name": "Object_4"
    },
    {
      "mesh": 1,
      "name": "Object_5"
    }
  ],
  "samplers": [
    {
      "magFilter": 9729,
      "minFilter": 9987,
      "wrapS": 10497,
      "wrapT": 10497
    }
  ],
  "scene": 0,
  "scenes": [
    {
      "name": "Sketchfab_Scene",
      "nodes": [
        0
      ]
    }
  ],
  "textures": [
    {
      "sampler": 0,
      "source": 0
    },
    {
      "sampler": 0,
      "source": 1
    },
    {
      "sampler": 0,
      "source": 2
    },
    {
      "sampler": 0,
      "source": 3
    }
  ]
}
