{
  "accessors": [
    {
      "bufferView": 2,
      "componentType": 5126,
      "count": 3180,
      "max": [
        0.9999080300331116,
        0.9999076724052429,
        0.29637888073921204
      ],
      "min": [
        -0.999907374382019,
        -0.9999083280563354,
        -1.2607430219650269
      ],
      "type": "VEC3"
    },
    {
      "bufferView": 2,
      "byteOffset": 38160,
      "componentType": 5126,
      "count": 3180,
      "max": [
        1.0,
        1.0,
        1.0
      ],
      "min": [
        -1.0,
        -1.0,
        -1.0
      ],
      "type": "VEC3"
    },
    {
      "bufferView": 3,
      "componentType": 5126,
      "count": 3180,
      "max": [
        1.0,
        1.0,
        1.0,
        1.0
      ],
      "min": [
        -1.0,
        -1.0,
        -0.9999850392341614,
        1.0
      ],
      "type": "VEC4"
    },
    {
      "bufferView": 1,
      "componentType": 5126,
      "count": 3180,
      "max": [
        0.7929344773292542,
        1.0
      ],
      "min": [
        0.0,
        0.0
      ],
      "type": "VEC2"
    },
    {
      "bufferView": 0,
      "componentType": 5125,
      "count": 8820,
      "type": "SCALAR"
    },
    {
      "bufferView": 2,
      "byteOffset": 76320,
      "componentType": 5126,
      "count": 1197,
      "max": [
        0.22581523656845093,
        0.22581523656845093,
        0.2001306414604187
      ],
      "min": [
        -0.22581523656845093,
        -0.22581523656845093,
        0.18317818641662598
      ],
      "type": "VEC3"
    },
    {
      "bufferView": 2,
      "byteOffset": 90684,
      "componentType": 5126,
      "count": 1197,
      "max": [
        1.0,
        1.0,
        0.9659265875816345
      ],
      "min": [
        -1.0,
        -1.0,
        -0.965926468372345
      ],
      "type": "VEC3"
    },
    {
      "bufferView": 3,
      "byteOffset": 50880,
      "componentType": 5126,
      "count": 1197,
      "max": [
        1.0,
        1.0,
        0.9999542832374573,
        1.0
      ],
      "min": [
        -1.0,
        -0.9807854890823364,
        -1.0,
        1.0
      ],
      "type": "VEC4"
    },
    {
      "bufferView": 1,
      "byteOffset": 25440,
      "componentType": 5126,
      "count": 1197,
      "max": [
        0.8712702393531799,
        0.9999999403953552
      ],
      "min": [
        7.450580596923828e-09,
        -2.2351741790771484e-08
      ],
      "type": "VEC2"
    },
    {
      "bufferView": 0,
      "byteOffset": 35280,
      "componentType": 5125,
      "count": 2304,
      "type": "SCALAR"
    },
    {
      "bufferView": 2,
      "byteOffset": 105048,
      "componentType": 5126,
      "count": 565,
      "max": [
        0.025845885276794434,
        0.025845883414149284,
        -1.2607430219650269
      ],
      "min": [
        -0.025845883414149284,
        -0.025845883414149284,
        -1.4673658609390259
      ],
      "type": "VEC3"
    },
    {
      "bufferView": 2,
      "byteOffset": 111828,
      "componentType": 5126,
      "count": 565,
      "max": [
        1.0,
        1.0,
        1.0
      ],
      "min": [
        -1.0,
        -1.0,
        -1.0
      ],
      "type": "VEC3"
    },
    {
      "bufferView": 1,
      "byteOffset": 35016,
      "componentType": 5126,
      "count": 565,
      "max": [
        0.9805992841720581,
        1.0
      ],
      "min": [
        0.00048530101776123047,
        0.0
      ],
      "type": "VEC2"
    },
    {
      "bufferView": 0,
      "byteOffset": 44496,
      "componentType": 5125,
      "count": 1728,
      "type": "SCALAR"
    },
    {
      "bufferView": 2,
      "byteOffset": 118608,
      "componentType": 5126,
      "count": 192,
      "max": [
        0.03436538204550743,
        0.03436538204550743,
        0.04002748429775238
      ],
      "min": [
        -0.03436538204550743,
        -0.03436538204550743,
        -0.06863834708929062
      ],
      "type": "VEC3"
    },
    {
      "bufferView": 2,
      "byteOffset": 120912,
      "componentType": 5126,
      "count": 192,
      "max": [
        1.0,
        1.0,
        1.0
      ],
      "min": [
        -1.0,
        -1.0,
        -1.0
      ],
      "type": "VEC3"
    },
    {
      "bufferView": 1,
      "byteOffset": 39536,
      "componentType": 5126,
      "count": 192,
      "max": [
        0.6845736503601074,
        0.6031804084777832
      ],
      "min": [
        0.0,
        0.0
      ],
      "type": "VEC2"
    },
    {
      "bufferView": 0,
      "byteOffset": 51408,
      "componentType": 5125,
      "count": 468,
      "type": "SCALAR"
    },
    {
      "bufferView": 2,
      "byteOffset": 123216,
      "componentType": 5126,
      "count": 1294,
      "max": [
        0.22355805337429047,
        0.2235579639673233,
        0.19311007857322693
      ],
      "min": [
        -0.22355790436267853,
        -0.22355811297893524,
        0.03375560790300369
      ],
      "type": "VEC3"
    },
    {
      "bufferView": 2,
      "byteOffset": 138744,
      "componentType": 5126,
      "count": 1294,
      "max": [
        0.9807854890823364,
        1.0,
        0.7907892465591431
      ],
      "min": [
        -0.9807855486869812,
        -1.0,
        -0.7907889485359192
      ],
      "type": "VEC3"
    },
    {
      "bufferView": 3,
      "byteOffset": 70032,
      "componentType": 5126,
      "count": 1294,
      "max": [
        0.9972367286682129,
        0.9871733784675598,
        0.9026061296463013,
        1.0
      ],
      "min": [
        -0.9919663071632385,
        -0.9999827742576599,
        -0.9201859831809998,
        1.0
      ],
      "type": "VEC4"
    },
    {
      "bufferView": 1,
      "byteOffset": 41072,
      "componentType": 5126,
      "count": 1294,
      "max": [
        0.9929131269454956,
        1.0
      ],
      "min": [
        0.0,
        0.0
      ],
      "type": "VEC2"
    },
    {
      "bufferView": 0,
      "byteOffset": 53280,
      "componentType": 5125,
      "count": 2304,
      "type": "SCALAR"
    },
    {
      "bufferView": 2,
      "byteOffset": 154272,
      "componentType": 5126,
      "count": 448,
      "max": [
        1.0,
        1.0,
        0.2546166181564331
      ],
      "min": [
        -1.0,
        -1.0,
        -0.013125386089086533
      ],
      "type": "VEC3"
    },
    {
      "bufferView": 2,
      "byteOffset": 159648,
      "componentType": 5126,
      "count": 448,
      "max": [
        0.3191598951816559,
        0.3191598951816559,
        -0.9474105834960938
      ],
      "min": [
        -0.3191604018211365,
        -0.3191601634025574,
        -0.9688683748245239
      ],
      "type": "VEC3"
    },
    {
      "bufferView": 1,
      "byteOffset": 51424,
      "componentType": 5126,
      "count": 448,
      "max": [
        0.9999998211860657,
        0.9999998807907104
      ],
      "min": [
        0.0,
        0.0
      ],
      "type": "VEC2"
    },
    {
      "bufferView": 0,
      "byteOffset": 62496,
      "componentType": 5125,
      "count": 1920,
      "type": "SCALAR"
    }
  ],
  "asset": {
    "extras": {
      "author": "Poring (https://sketchfab.com/poring)",
      "license": "CC-BY-4.0 (http://creativecommons.org/licenses/by/4.0/)",
      "source": "https://sketchfab.com/3d-models/japanese-umbrella-c955c7ed20d64469a1ed203e3268cfbf",
      "title": "Japanese Umbrella"
    },
    "generator": "Sketchfab-14.20.0",
    "version": "2.0"
  },
  "bufferViews": [
    {
      "buffer": 0,
      "byteLength": 70176,
      "name": "floatBufferViews",
      "target": 34963
    },
    {
      "buffer": 0,
      "byteLength": 55008,
      "byteOffset": 70176,
      "byteStride": 8,
      "name": "floatBufferViews",
      "target": 34962
    },
    {
      "buffer": 0,
      "byteLength": 165024,
      "byteOffset": 125184,
      "byteStride": 12,
      "name": "floatBufferViews",
      "target": 34962
    },
    {
      "buffer": 0,
      "byteLength": 90736,
      "byteOffset": 290208,
      "byteStride": 16,
      "name": "floatBufferViews",
      "target": 34962
    }
  ],
  "buffers": [
    {
      "byteLength": 380944,
      "uri": "scene.bin"
    }
  ],
  "images": [
    {
      "uri": "textures/Wood.001_baseColor.png"
    },
    {
      "uri": "textures/Wood.001_normal.png"
    },
    {
      "uri": "textures/Wood.002_baseColor.png"
    },
    {
      "uri": "textures/Wood.002_normal.png"
    },
    {
      "uri": "textures/handle_baseColor.png"
    },
    {
      "uri": "textures/Wood_baseColor.png"
    },
    {
      "uri": "textures/Wood_normal.png"
    },
    {
      "uri": "textures/Fabric_baseColor.png"
    }
  ],
  "materials": [
    {
      "doubleSided": true,
      "name": "Wood.001",
      "normalTexture": {
        "index": 1
      },
      "pbrMetallicRoughness": {
        "baseColorTexture": {
          "index": 0
        },
        "metallicFactor": 0.0,
        "roughnessFactor": 0.8211145618000169
      }
    },
    {
      "doubleSided": true,
      "name": "Wood.002",
      "normalTexture": {
        "index": 3
      },
      "pbrMetallicRoughness": {
        "baseColorTexture": {
          "index": 2
        },
        "metallicFactor": 0.0,
        "roughnessFactor": 0.8211145618000169
      }
    },
    {
      "doubleSided": true,
      "name": "handle",
      "pbrMetallicRoughness": {
        "baseColorTexture": {
          "index": 4
        },
        "metallicFactor": 0.0,
        "roughnessFactor": 0.826772
      }
    },
    {
      "doubleSided": true,
      "name": "Joint",
      "pbrMetallicRoughness": {
        "baseColorTexture": {
          "index": 4
        },
        "metallicFactor": 0.0,
        "roughnessFactor": 0.318182
      }
    },
    {
      "doubleSided": true,
      "name": "Wood",
      "normalTexture": {
        "index": 6
      },
      "pbrMetallicRoughness": {
        "baseColorTexture": {
          "index": 5
        },
        "metallicFactor": 0.0,
        "roughnessFactor": 0.0
      }
    },
    {
      "alphaMode": "BLEND",
      "doubleSided": true,
      "name": "Fabric",
      "pbrMetallicRoughness": {
        "baseColorFactor": [
          1.0,
          1.0,
          1.0,
          0.9
        ],
        "baseColorTexture": {
          "index": 7
        },
        "metallicFactor": 0.0,
        "roughnessFactor": 0.798753882025019
      }
    }
  ],
  "meshes": [
    {
      "name": "Circle.007_Wood.001_0",
      "primitives": [
        {
          "attributes": {
            "NORMAL": 1,
            "POSITION": 0,
            "TANGENT": 2,
            "TEXCOORD_0": 3
          },
          "indices": 4,
          "material": 0,
          "mode": 4
        }
      ]
    },
    {
      "name": "Circle.007_Wood.002_0",
      "primitives": [
        {
          "attributes": {
            "NORMAL": 6,
            "POSITION": 5,
            "TANGENT": 7,
            "TEXCOORD_0": 8
          },
          "indices": 9,
          "material": 1,
          "mode": 4
        }
      ]
    },
    {
      "name": "Circle.007_handle_0",
      "primitives": [
        {
          "attributes": {
            "NORMAL": 11,
            "POSITION": 10,
            "TEXCOORD_0": 12
          },
          "indices": 13,
          "material": 2,
          "mode": 4
        }
      ]
    },
    {
      "name": "Circle.007_Joint_0",
      "primitives": [
        {
          "attributes": {
            "NORMAL": 15,
            "POSITION": 14,
            "TEXCOORD_0": 16
          },
          "indices": 17,
          "material": 3,
          "mode": 4
        }
      ]
    },
    {
      "name": "Circle.007_Wood_0",
      "primitives": [
        {
          "attributes": {
            "NORMAL": 19,
            "POSITION": 18,
            "TANGENT": 20,
            "TEXCOORD_0": 21
          },
          "indices": 22,
          "material": 4,
          "mode": 4
        }
      ]
    },
    {
      "name": "Circle.007_Fabric_0",
      "primitives": [
        {
          "attributes": {
            "NORMAL": 24,
            "POSITION": 23,
            "TEXCOORD_0": 25
          },
          "indices": 26,
          "material": 5,
          "mode": 4
        }
      ]
    }
  ],
  "nodes": [
    {
      "children": [
        1
      ],
      "matrix": [
        1.0,
        0.0,
        0.0,
        0.0,
        0.0,
        2.220446049250313e-16,
        -1.0,
        0.0,
        0.0,
        1.0,
        2.220446049250313e-16,
        0.0,
        0.0,
        0.0,
        0.0,
        1.0
      ],
      "name": "Sketchfab_model"
    },
    {
      "children": [
        2
      ],
      "matrix": [
        0.009999999776482582,
        0.0,
        0.0,
        0.0,
        0.0,
        0.0,
        0.009999999776482582,
        0.0,
        0.0,
        -0.009999999776482582,
        0.0,
        0.0,
        0.0,
        0.0,
        0.0,
        1.0
      ],
      "name": "ac44366b5f814c0094c57f80278a668c.fbx"
    },
    {
      "children": [
        3
      ],
      "name": "RootNode"
    },
    {
      "children": [
        4,
        5,
        6,
        7,
        8,
        9
      ],
      "matrix": [
        100.0,
        0.0,
        0.0,
        0.0,
        0.0,
        -1.629206793918314e-05,
        -99.99999999999868,
        0.0,
        0.0,
        99.99999999999868,
        -1.629206793918314e-05,
        0.0,
        0.0,
        0.0,
        0.0,
        1.0
      ],
      "name": "Circle.007"
    },
    {
      "mesh": 0,
      "name": "Circle.007_Wood.001_0"
    },
    {
      "mesh": 1,
      "name": "Circle.007_Wood.002_0"
    },
    {
      "mesh": 2,
      "name": "Circle.007_handle_0"
    },
    {
      "mesh": 3,
      "name": "Circle.007_Joint_0"
    },
    {
      "mesh": 4,
      "name": "Circle.007_Wood_0"
    },
    {
      "mesh": 5,
      "name": "Circle.007_Fabric_0"
    }
  ],
  "samplers": [
    {
      "magFilter": 9729,
      "minFilter": 9987,
      "wrapS": 10497,
      "wrapT": 10497
    }
  ],
  "scene": 0,
  "scenes": [
    {
      "name": "Sketchfab_Scene",
      "nodes": [
        0
      ]
    }
  ],
  "textures": [
    {
      "sampler": 0,
      "source": 0
    },
    {
      "sampler": 0,
      "source": 1
    },
    {
      "sampler": 0,
      "source": 2
    },
    {
      "sampler": 0,
      "source": 3
    },
    {
      "sampler": 0,
      "source": 4
    },
    {
      "sampler": 0,
      "source": 5
    },
    {
      "sampler": 0,
      "source": 6
    },
    {
      "sampler": 0,
      "source": 7
    }
  ]
}
