{
  "accessors": [
    {
      "bufferView": 2,
      "componentType": 5126,
      "count": 65532,
      "max": [
        14.514510154724121,
        14.44968032836914,
        15.551717758178711
      ],
      "min": [
        -14.413862228393555,
        -14.170446395874023,
        0.07125599682331085
      ],
      "type": "VEC3"
    },
    {
      "bufferView": 2,
      "byteOffset": 786384,
      "componentType": 5126,
      "count": 65532,
      "max": [
        0.9999994039535522,
        0.9999397993087769,
        1.0
      ],
      "min": [
        -0.9999991655349731,
        -1.0,
        -0.999983549118042
      ],
      "type": "VEC3"
    },
    {
      "bufferView": 1,
      "componentType": 5126,
      "count": 65532,
      "max": [
        0.9995689988136292,
        0.8269039988517761
      ],
      "min": [
        0.009033000096678734,
        0.0007409999961964786
      ],
      "type": "VEC2"
    },
    {
      "bufferView": 0,
      "componentType": 5125,
      "count": 327750,
      "type": "SCALAR"
    },
    {
      "bufferView": 2,
      "byteOffset": 1572768,
      "componentType": 5126,
      "count": 65532,
      "max": [
        11.341249465942383,
        12.95476245880127,
        24.387752532958984
      ],
      "min": [
        -13.055412292480469,
        -14.139671325683594,
        0.22214099764823914
      ],
      "type": "VEC3"
    },
    {
      "bufferView": 2,
      "byteOffset": 2359152,
      "componentType": 5126,
      "count": 65532,
      "max": [
        0.9999996423721313,
        0.9999970197677612,
        0.9999997615814209
      ],
      "min": [
        -0.9999998807907104,
        -0.9999997615814209,
        -0.9999967813491821
      ],
      "type": "VEC3"
    },
    {
      "bufferView": 1,
      "byteOffset": 524256,
      "componentType": 5126,
      "count": 65532,
      "max": [
        0.9971200227737427,
        0.8273929953575134
      ],
      "min": [
        0.00024399999529123306,
        0.06584099680185318
      ],
      "type": "VEC2"
    },
    {
      "bufferView": 0,
      "byteOffset": 1311000,
      "componentType": 5125,
      "count": 307182,
      "type": "SCALAR"
    },
    {
      "bufferView": 2,
      "byteOffset": 3145536,
      "componentType": 5126,
      "count": 65533,
      "max": [
        3.921808958053589,
        14.449678421020508,
        25.682552337646484
      ],
      "min": [
        -14.413861274719238,
        -8.575409889221191,
        0.0924760028719902
      ],
      "type": "VEC3"
    },
    {
      "bufferView": 2,
      "byteOffset": 3931932,
      "componentType": 5126,
      "count": 65533,
      "max": [
        0.9999994039535522,
        0.9999997615814209,
        0.9999997615814209
      ],
      "min": [
        -0.9999997615814209,
        -0.9999996423721313,
        -0.9999945163726807
      ],
      "type": "VEC3"
    },
    {
      "bufferView": 1,
      "byteOffset": 1048512,
      "componentType": 5126,
      "count": 65533,
      "max": [
        0.9969720244407654,
        0.8273929953575134
      ],
      "min": [
        0.001234999974258244,
        0.04686100035905838
      ],
      "type": "VEC2"
    },
    {
      "bufferView": 0,
      "byteOffset": 2539728,
      "componentType": 5125,
      "count": 309534,
      "type": "SCALAR"
    },
    {
      "bufferView": 2,
      "byteOffset": 4718328,
      "componentType": 5126,
      "count": 65533,
      "max": [
        14.431544303894043,
        13.298712730407715,
        12.829044342041016
      ],
      "min": [
        -14.395112991333008,
        -14.084550857543945,
        0.32672399282455444
      ],
      "type": "VEC3"
    },
    {
      "bufferView": 2,
      "byteOffset": 5504724,
      "componentType": 5126,
      "count": 65533,
      "max": [
        0.9999979734420776,
        0.9999995231628418,
        1.0
      ],
      "min": [
        -0.9999831914901733,
        -0.9999970197677612,
        -0.9999986886978149
      ],
      "type": "VEC3"
    },
    {
      "bufferView": 1,
      "byteOffset": 1572776,
      "componentType": 5126,
      "count": 65533,
      "max": [
        0.9994779825210571,
        0.8835449814796448
      ],
      "min": [
        0.00024399999529123306,
        0.0007539999787695706
      ],
      "type": "VEC2"
    },
    {
      "bufferView": 0,
      "byteOffset": 3777864,
      "componentType": 5125,
      "count": 303135,
      "type": "SCALAR"
    },
    {
      "bufferView": 2,
      "byteOffset": 6291120,
      "componentType": 5126,
      "count": 65532,
      "max": [
        14.494000434875488,
        14.440961837768555,
        9.332778930664063
      ],
      "min": [
        -12.330022811889648,
        -9.961292266845703,
        0.36369699239730835
      ],
      "type": "VEC3"
    },
    {
      "bufferView": 2,
      "byteOffset": 7077504,
      "componentType": 5126,
      "count": 65532,
      "max": [
        0.9999921321868896,
        0.9999973773956299,
        0.9999997615814209
      ],
      "min": [
        -0.9999955892562866,
        -0.9999991655349731,
        -0.9999983310699463
      ],
      "type": "VEC3"
    },
    {
      "bufferView": 1,
      "byteOffset": 2097040,
      "componentType": 5126,
      "count": 65532,
      "max": [
        0.9992290139198303,
        0.8323990106582642
      ],
      "min": [
        0.00024399999529123306,
        0.0011810000287368894
      ],
      "type": "VEC2"
    },
    {
      "bufferView": 0,
      "byteOffset": 4990404,
      "componentType": 5125,
      "count": 303009,
      "type": "SCALAR"
    },
    {
      "bufferView": 2,
      "byteOffset": 7863888,
      "componentType": 5126,
      "count": 65532,
      "max": [
        14.514509201049805,
        14.427732467651367,
        21.264116287231445
      ],
      "min": [
        -12.617844581604004,
        -14.169174194335938,
        0.6631090044975281
      ],
      "type": "VEC3"
    },
    {
      "bufferView": 2,
      "byteOffset": 8650272,
      "componentType": 5126,
      "count": 65532,
      "max": [
        0.999990701675415,
        0.9999991655349731,
        1.0
      ],
      "min": [
        -0.9999997615814209,
        -0.9999997615814209,
        -0.9999842643737793
      ],
      "type": "VEC3"
    },
    {
      "bufferView": 1,
      "byteOffset": 2621296,
      "componentType": 5126,
      "count": 65532,
      "max": [
        0.999625027179718,
        0.8273929953575134
      ],
      "min": [
        0.00024399999529123306,
        0.0007800000021234155
      ],
      "type": "VEC2"
    },
    {
      "bufferView": 0,
      "byteOffset": 6202440,
      "componentType": 5125,
      "count": 259149,
      "type": "SCALAR"
    },
    {
      "bufferView": 2,
      "byteOffset": 9436656,
      "componentType": 5126,
      "count": 53180,
      "max": [
        14.514509201049805,
        12.152250289916992,
        12.856998443603516
      ],
      "min": [
        -14.406885147094727,
        -14.170445442199707,
        0.2568489909172058
      ],
      "type": "VEC3"
    },
    {
      "bufferView": 2,
      "byteOffset": 10074816,
      "componentType": 5126,
      "count": 53180,
      "max": [
        0.999996542930603,
        0.9999991655349731,
        1.0
      ],
      "min": [
        -0.9999998807907104,
        -1.0,
        -0.9999842643737793
      ],
      "type": "VEC3"
    },
    {
      "bufferView": 1,
      "byteOffset": 3145552,
      "componentType": 5126,
      "count": 53180,
      "max": [
        0.9994210004806519,
        0.8815919756889343
      ],
      "min": [
        0.00024399999529123306,
        0.04547100141644478
      ],
      "type": "VEC2"
    },
    {
      "bufferView": 0,
      "byteOffset": 7239036,
      "componentType": 5125,
      "count": 205233,
      "type": "SCALAR"
    },
    {
      "bufferView": 2,
      "byteOffset": 10712976,
      "componentType": 5126,
      "count": 6464,
      "max": [
        14.514510154724121,
        14.44968032836914,
        1.8433350324630737
      ],
      "min": [
        -14.413863182067871,
        -14.170446395874023,
        -0.2989790141582489
      ],
      "type": "VEC3"
    },
    {
      "bufferView": 2,
      "byteOffset": 10790544,
      "componentType": 5126,
      "count": 6464,
      "max": [
        1.0,
        1.0,
        0.9998303055763245
      ],
      "min": [
        -1.0,
        -1.0,
        -1.0
      ],
      "type": "VEC3"
    },
    {
      "bufferView": 1,
      "byteOffset": 3570992,
      "componentType": 5126,
      "count": 6464,
      "max": [
        0.8483369946479797,
        0.946478009223938
      ],
      "min": [
        0.10288199782371521,
        0.04244200140237808
      ],
      "type": "VEC2"
    },
    {
      "bufferView": 0,
      "byteOffset": 8059968,
      "componentType": 5125,
      "count": 8244,
      "type": "SCALAR"
    }
  ],
  "asset": {
    "extras": {
      "author": "noe-3d.at (https://sketchfab.com/www.noe-3d.at)",
      "license": "CC-BY-NC-4.0 (http://creativecommons.org/licenses/by-nc/4.0/)",
      "source": "https://sketchfab.com/3d-models/brunnen-5c8c1692d54e4e85a9cfb45fbce0923b",
      "title": "Brunnen"
    },
    "generator": "Sketchfab-12.57.0",
    "version": "2.0"
  },
  "bufferViews": [
    {
      "buffer": 0,
      "byteLength": 8092944,
      "name": "floatBufferViews",
      "target": 34963
    },
    {
      "buffer": 0,
      "byteLength": 3622704,
      "byteOffset": 8092944,
      "byteStride": 8,
      "name": "floatBufferViews",
      "target": 34962
    },
    {
      "buffer": 0,
      "byteLength": 10868112,
      "byteOffset": 11715648,
      "byteStride": 12,
      "name": "floatBufferViews",
      "target": 34962
    }
  ],
  "buffers": [
    {
      "byteLength": 22583760,
      "uri": "scene.bin"
    }
  ],
  "images": [
    {
      "uri": "textures/Brunnen_O_Material_u1_v1_baseColor.png"
    }
  ],
  "materials": [
    {
      "doubleSided": true,
      "name": "Brunnen_O_Material_u1_v1",
      "pbrMetallicRoughness": {
        "baseColorTexture": {
          "index": 0
        },
        "metallicFactor": 0.0
      }
    },
    {
      "alphaMode": "BLEND",
      "doubleSided": true,
      "name": "bottom",
      "pbrMetallicRoughness": {
        "baseColorFactor": [
          0.2527695292606712,
          0.04929945181737104,
          0.04929945181737104,
          0.9562972353452627
        ],
        "metallicFactor": 0.0
      }
    }
  ],
  "meshes": [
    {
      "name": "Object_0",
      "primitives": [
        {
          "attributes": {
            "NORMAL": 1,
            "POSITION": 0,
            "TEXCOORD_0": 2
          },
          "indices": 3,
          "material": 0,
          "mode": 4
        }
      ]
    },
    {
      "name": "Object_1",
      "primitives": [
        {
          "attributes": {
            "NORMAL": 5,
            "POSITION": 4,
            "TEXCOORD_0": 6
          },
          "indices": 7,
          "material": 0,
          "mode": 4
        }
      ]
    },
    {
      "name": "Object_2",
      "primitives": [
        {
          "attributes": {
            "NORMAL": 9,
            "POSITION": 8,
            "TEXCOORD_0": 10
          },
          "indices": 11,
          "material": 0,
          "mode": 4
        }
      ]
    },
    {
      "name": "Object_3",
      "primitives": [
        {
          "attributes": {
            "NORMAL": 13,
            "POSITION": 12,
            "TEXCOORD_0": 14
          },
          "indices": 15,
          "material": 0,
          "mode": 4
        }
      ]
    },
    {
      "name": "Object_4",
      "primitives": [
        {
          "attributes": {
            "NORMAL": 17,
            "POSITION": 16,
            "TEXCOORD_0": 18
          },
          "indices": 19,
          "material": 0,
          "mode": 4
        }
      ]
    },
    {
      "name": "Object_5",
      "primitives": [
        {
          "attributes": {
            "NORMAL": 21,
            "POSITION": 20,
            "TEXCOORD_0": 22
          },
          "indices": 23,
          "material": 0,
          "mode": 4
        }
      ]
    },
    {
      "name": "Object_6",
      "primitives": [
        {
          "attributes": {
            "NORMAL": 25,
            "POSITION": 24,
            "TEXCOORD_0": 26
          },
          "indices": 27,
          "material": 0,
          "mode": 4
        }
      ]
    },
    {
      "name": "Object_7",
      "primitives": [
        {
          "attributes": {
            "NORMAL": 29,
            "POSITION": 28,
            "TEXCOORD_0": 30
          },
          "indices": 31,
          "material": 1,
          "mode": 4
        }
      ]
    }
  ],
  "nodes": [
    {
      "children": [
        1
      ],
      "matrix": [
        0.0038026366382837296,
        2.220430035033654e-16,
        -0.9999927878379822,
        0.0,
        -0.9999927878379822,
        8.443549500211599e-19,
        -0.0038026366382837296,
        0.0,
        0.0,
        1.0,
        2.220446049250313e-16,
        0.0,
        0.1897677779197693,
        1.9729928514227067e-17,
        -0.08885569870471954,
        1.0
      ],
      "name": "Sketchfab_model"
    },
    {
      "children": [
        2,
        3,
        4,
        5,
        6,
        7,
        8,
        9
      ],
      "name": "Brunnen_C.obj.cleaner.materialmerger.gles"
    },
    {
      "mesh": 0,
      "name": "Object_2"
    },
    {
      "mesh": 1,
      "name": "Object_3"
    },
    {
      "mesh": 2,
      "name": "Object_4"
    },
    {
      "mesh": 3,
      "name": "Object_5"
    },
    {
      "mesh": 4,
      "name": "Object_6"
    },
    {
      "mesh": 5,
      "name": "Object_7"
    },
    {
      "mesh": 6,
      "name": "Object_8"
    },
    {
      "mesh": 7,
      "name": "Object_9"
    }
  ],
  "samplers": [
    {
      "magFilter": 9729,
      "minFilter": 9987,
      "wrapS": 10497,
      "wrapT": 10497
    }
  ],
  "scene": 0,
  "scenes": [
    {
      "name": "Sketchfab_Scene",
      "nodes": [
        0
      ]
    }
  ],
  "textures": [
    {
      "sampler": 0,
      "source": 0
    }
  ]
}
