{
  "accessors": [
    {
      "bufferView": 2,
      "componentType": 5126,
      "count": 3428,
      "max": [
        16.632816314697266,
        17.34500503540039,
        38.77387619018555
      ],
      "min": [
        -16.516847610473633,
        -14.91641616821289,
        -0.0008965952438302338
      ],
      "type": "VEC3"
    },
    {
      "bufferView": 2,
      "byteOffset": 41136,
      "componentType": 5126,
      "count": 3428,
      "max": [
        0.999950647354126,
        0.9997483491897583,
        0.9999718070030212
      ],
      "min": [
        -0.9998739361763,
        -0.9995719790458679,
        -0.999900758266449
      ],
      "type": "VEC3"
    },
    {
      "bufferView": 1,
      "componentType": 5126,
      "count": 3428,
      "max": [
        3.291057586669922,
        16.519929885864258
      ],
      "min": [
        -1.5152122974395752,
        -1.1761364936828613
      ],
      "type": "VEC2"
    },
    {
      "bufferView": 1,
      "byteOffset": 27424,
      "componentType": 5126,
      "count": 3428,
      "max": [
        3.291057586669922,
        16.519929885864258
      ],
      "min": [
        -1.5152122974395752,
        -1.1761364936828613
      ],
      "type": "VEC2"
    },
    {
      "bufferView": 1,
      "byteOffset": 54848,
      "componentType": 5126,
      "count": 3428,
      "max": [
        1.0,
        0.9996291399002075
      ],
      "min": [
        0.0,
        0.8503709435462952
      ],
      "type": "VEC2"
    },
    {
      "bufferView": 1,
      "byteOffset": 82272,
      "componentType": 5126,
      "count": 3428,
      "max": [
        3.291057586669922,
        16.519929885864258
      ],
      "min": [
        -1.5152122974395752,
        -1.1761364936828613
      ],
      "type": "VEC2"
    },
    {
      "bufferView": 0,
      "componentType": 5125,
      "count": 14541,
      "type": "SCALAR"
    },
    {
      "bufferView": 2,
      "byteOffset": 82272,
      "componentType": 5126,
      "count": 4320,
      "max": [
        20.722705841064453,
        21.449251174926758,
        41.71905517578125
      ],
      "min": [
        -19.639070510864258,
        -18.71371841430664,
        10.643726348876953
      ],
      "type": "VEC3"
    },
    {
      "bufferView": 2,
      "byteOffset": 134112,
      "componentType": 5126,
      "count": 4320,
      "max": [
        0.9994515180587769,
        0.9999213814735413,
        0.9998295307159424
      ],
      "min": [
        -0.9989362955093384,
        -0.9991685748100281,
        -0.9930615425109863
      ],
      "type": "VEC3"
    },
    {
      "bufferView": 1,
      "byteOffset": 109696,
      "componentType": 5126,
      "count": 4320,
      "max": [
        1.0,
        1.0
      ],
      "min": [
        0.0,
        0.0
      ],
      "type": "VEC2"
    },
    {
      "bufferView": 1,
      "byteOffset": 144256,
      "componentType": 5126,
      "count": 4320,
      "max": [
        1.0,
        1.0
      ],
      "min": [
        0.0,
        0.0
      ],
      "type": "VEC2"
    },
    {
      "bufferView": 1,
      "byteOffset": 178816,
      "componentType": 5126,
      "count": 4320,
      "max": [
        1.0,
        0.9996291399002075
      ],
      "min": [
        1.0,
        0.9996291399002075
      ],
      "type": "VEC2"
    },
    {
      "bufferView": 1,
      "byteOffset": 213376,
      "componentType": 5126,
      "count": 4320,
      "max": [
        1.0,
        1.0
      ],
      "min": [
        0.0,
        0.0
      ],
      "type": "VEC2"
    },
    {
      "bufferView": 0,
      "byteOffset": 58164,
      "componentType": 5125,
      "count": 6480,
      "type": "SCALAR"
    }
  ],
  "asset": {
    "extras": {
      "author": "Jogoss (https://sketchfab.com/thejogoss9)",
      "license": "CC-BY-4.0 (http://creativecommons.org/licenses/by/4.0/)",
      "source": "https://sketchfab.com/3d-models/sakura-tree-01-low-poly-model-147ae7d0d332456a99ec6195e9b0cd4f",
      "title": "Sakura Tree 01 - Low Poly Model"
    },
    "generator": "Sketchfab-15.55.0",
    "version": "2.0"
  },
  "bufferViews": [
    {
      "buffer": 0,
      "byteLength": 84084,
      "name": "floatBufferViews",
      "target": 34963
    },
    {
      "buffer": 0,
      "byteLength": 247936,
      "byteOffset": 84084,
      "byteStride": 8,
      "name": "floatBufferViews",
      "target": 34962
    },
    {
      "buffer": 0,
      "byteLength": 185952,
      "byteOffset": 332020,
      "byteStride": 12,
      "name": "floatBufferViews",
      "target": 34962
    }
  ],
  "buffers": [
    {
      "byteLength": 517972,
      "uri": "scene.bin"
    }
  ],
  "images": [
    {
      "uri": "textures/Bark001_2K_JPG_Mat_baseColor.png"
    },
    {
      "uri": "textures/Sakura_Mat_baseColor.png"
    }
  ],
  "materials": [
    {
      "doubleSided": true,
      "name": "Bark001_2K_JPG_Mat",
      "pbrMetallicRoughness": {
        "baseColorTexture": {
          "index": 0
        },
        "metallicFactor": 0.0,
        "roughnessFactor": 0.9577051494623774
      }
    },
    {
      "alphaMode": "BLEND",
      "doubleSided": true,
      "name": "Sakura_Mat",
      "pbrMetallicRoughness": {
        "baseColorTexture": {
          "index": 1
        },
        "metallicFactor": 0.0,
        "roughnessFactor": 0.9577051494623774
      }
    }
  ],
  "meshes": [
    {
      "name": "Sakura_Bark001_2K_JPG_Mat_0",
      "primitives": [
        {
          "attributes": {
            "NORMAL": 1,
            "POSITION": 0,
            "TEXCOORD_0": 2,
            "TEXCOORD_1": 3,
            "TEXCOORD_2": 4,
            "TEXCOORD_3": 5
          },
          "indices": 6,
          "material": 0,
          "mode": 4
        }
      ]
    },
    {
      "name": "Sakura_Sakura_Mat_0",
      "primitives": [
        {
          "attributes": {
            "NORMAL": 8,
            "POSITION": 7,
            "TEXCOORD_0": 9,
            "TEXCOORD_1": 10,
            "TEXCOORD_2": 11,
            "TEXCOORD_3": 12
          },
          "indices": 13,
          "material": 1,
          "mode": 4
        }
      ]
    }
  ],
  "nodes": [
    {
      "children": [
        1
      ],
      "matrix": [
        1.0,
        0.0,
        0.0,
        0.0,
        0.0,
        2.220446049250313e-16,
        -1.0,
        0.0,
        0.0,
        1.0,
        2.220446049250313e-16,
        0.0,
        0.0,
        0.0,
        0.0,
        1.0
      ],
      "name": "Sketchfab_model"
    },
    {
      "children": [
        2
      ],
      "matrix": [
        0.009999999776482582,
        0.0,
        0.0,
        0.0,
        0.0,
        0.0,
        0.009999999776482582,
        0.0,
        0.0,
        -0.009999999776482582,
        0.0,
        0.0,
        0.0,
        0.0,
        0.0,
        1.0
      ],
      "name": "Sakura.fbx"
    },
    {
      "children": [
        3
      ],
      "name": "RootNode"
    },
    {
      "children": [
        4,
        5
      ],
      "matrix": [
        1.0,
        0.0,
        0.0,
        0.0,
        0.0,
        2.220446049250313e-16,
        -1.0,
        0.0,
        0.0,
        1.0,
        2.220446049250313e-16,
        0.0,
        0.0,
        0.0,
        0.0,
        1.0
      ],
      "name": "Sakura"
    },
    {
      "mesh": 0,
      "name": "Sakura_Bark001_2K_JPG_Mat_0"
    },
    {
      "mesh": 1,
      "name": "Sakura_Sakura_Mat_0"
    }
  ],
  "samplers": [
    {
      "magFilter": 9729,
      "minFilter": 9987,
      "wrapS": 10497,
      "wrapT": 10497
    }
  ],
  "scene": 0,
  "scenes": [
    {
      "name": "Sketchfab_Scene",
      "nodes": [
        0
      ]
    }
  ],
  "textures": [
    {
      "sampler": 0,
      "source": 0
    },
    {
      "sampler": 0,
      "source": 1
    }
  ]
}
